# xmcd CD database file
#
# Track frame offsets:
#	150
#	22378
#	36275
#	53558
#	71188
#	90223
#	101365
#	118370
#	133488
#	149520
#	165413
#	184005
#	200045
#	215960
#	234265
#	249970
#	266658
#	287120
#	299703
#	315105
#
# Disc length: 4403 seconds
#
# Revision: 1
# Processed by: cddbd v1.5.2PL0 Copyright (c) Steve Scherf et al.
# Submitted via: CDex 1.70beta2
#
DISCID=3c113114
DTITLE=Various Artist - リフレッシュO型
DYEAR=1994
DGENRE=Easy Listening
TTITLE0=グレイテスト・ラブ・オブ・オール
TTITLE1=愛は吐息のように
TTITLE2=アマポーラ
TTITLE3=愛と青春の旅立ち
TTITLE4=やさしく愛して
TTITLE5=愛の歓び
TTITLE6=アイ・ライク・ショパン
TTITLE7=やさしく歌って
TTITLE8=カリフォルニアの青い空
TTITLE9=太陽がいっぱい
TTITLE10=ユー・キャン・ハブ・ミー・エニタイム
TTITLE11=オールウェイズ・ラブ・ユー
TTITLE12=ウィアー・オール・アローン
TTITLE13=ミスター・ロンリー
TTITLE14=ムーン・リバー
TTITLE15=グローリー・オブ・ラブ
TTITLE16=とどかぬ想い
TTITLE17=アンチェインド・メロディー
TTITLE18=愛情物語
TTITLE19=すてきなＳｏｍｅｂｏｄｙ
EXTD=YEAR: 1994
EXTT0=
EXTT1=
EXTT2=
EXTT3=
EXTT4=
EXTT5=
EXTT6=
EXTT7=
EXTT8=
EXTT9=
EXTT10=
EXTT11=
EXTT12=
EXTT13=
EXTT14=
EXTT15=
EXTT16=
EXTT17=
EXTT18=
EXTT19=
PLAYORDER=
